<mxfile host="app.diagrams.net" modified="2023-06-08T06:44:17.621Z" agent="Mozilla/5.0 (Windows NT 10.0; Win64; x64) AppleWebKit/537.36 (KHTML, like Gecko) Chrome/114.0.0.0 Safari/537.36 Edg/114.0.1823.37" etag="19NHOpxnPxe3qxMhy2eT" version="21.3.7" type="device">
  <diagram name="Страница 1" id="kVgo52qFzO9PWDeGA9D4">
    <mxGraphModel dx="4412" dy="1935" grid="1" gridSize="10" guides="1" tooltips="1" connect="1" arrows="1" fold="1" page="1" pageScale="1" pageWidth="827" pageHeight="1169" math="0" shadow="0">
      <root>
        <mxCell id="0" />
        <mxCell id="1" parent="0" />
        <mxCell id="ELEsdhav3RuFbOq88L6e-13" value="" style="edgeStyle=orthogonalEdgeStyle;rounded=0;orthogonalLoop=1;jettySize=auto;html=1;dashed=1;endArrow=none;endFill=0;" edge="1" parent="1" source="ELEsdhav3RuFbOq88L6e-2" target="ELEsdhav3RuFbOq88L6e-12">
          <mxGeometry relative="1" as="geometry">
            <Array as="points">
              <mxPoint x="195" y="690" />
              <mxPoint x="195" y="690" />
            </Array>
          </mxGeometry>
        </mxCell>
        <mxCell id="ELEsdhav3RuFbOq88L6e-2" value="LotController" style="ellipse;shape=umlControl;whiteSpace=wrap;html=1;" vertex="1" parent="1">
          <mxGeometry x="155" y="535" width="80" height="85" as="geometry" />
        </mxCell>
        <mxCell id="ELEsdhav3RuFbOq88L6e-11" value="" style="edgeStyle=orthogonalEdgeStyle;rounded=0;orthogonalLoop=1;jettySize=auto;html=1;dashed=1;endArrow=none;endFill=0;" edge="1" parent="1" source="ELEsdhav3RuFbOq88L6e-3" target="ELEsdhav3RuFbOq88L6e-10">
          <mxGeometry relative="1" as="geometry">
            <Array as="points">
              <mxPoint x="80" y="690" />
              <mxPoint x="80" y="690" />
            </Array>
          </mxGeometry>
        </mxCell>
        <mxCell id="ELEsdhav3RuFbOq88L6e-3" value="Страница с лотом" style="shape=umlBoundary;whiteSpace=wrap;html=1;" vertex="1" parent="1">
          <mxGeometry x="30" y="550" width="100" height="80" as="geometry" />
        </mxCell>
        <mxCell id="ELEsdhav3RuFbOq88L6e-9" value="" style="edgeStyle=orthogonalEdgeStyle;rounded=0;orthogonalLoop=1;jettySize=auto;html=1;dashed=1;endArrow=none;endFill=0;" edge="1" parent="1" source="ELEsdhav3RuFbOq88L6e-4" target="ELEsdhav3RuFbOq88L6e-7">
          <mxGeometry relative="1" as="geometry">
            <Array as="points">
              <mxPoint x="-35" y="690" />
              <mxPoint x="-35" y="690" />
            </Array>
          </mxGeometry>
        </mxCell>
        <mxCell id="ELEsdhav3RuFbOq88L6e-4" value="Игрок" style="shape=umlActor;verticalLabelPosition=bottom;verticalAlign=top;html=1;" vertex="1" parent="1">
          <mxGeometry x="-50" y="550" width="30" height="60" as="geometry" />
        </mxCell>
        <mxCell id="ELEsdhav3RuFbOq88L6e-15" value="" style="edgeStyle=elbowEdgeStyle;rounded=0;orthogonalLoop=1;jettySize=auto;html=1;elbow=vertical;curved=0;" edge="1" parent="1" source="ELEsdhav3RuFbOq88L6e-7" target="ELEsdhav3RuFbOq88L6e-10">
          <mxGeometry relative="1" as="geometry">
            <Array as="points">
              <mxPoint x="40" y="690" />
            </Array>
          </mxGeometry>
        </mxCell>
        <mxCell id="ELEsdhav3RuFbOq88L6e-16" value="Указание &lt;br&gt;размера&lt;br&gt;ставки" style="edgeLabel;html=1;align=center;verticalAlign=middle;resizable=0;points=[];" vertex="1" connectable="0" parent="ELEsdhav3RuFbOq88L6e-15">
          <mxGeometry x="-0.1333" y="-1" relative="1" as="geometry">
            <mxPoint as="offset" />
          </mxGeometry>
        </mxCell>
        <mxCell id="ELEsdhav3RuFbOq88L6e-7" value="" style="html=1;points=[];perimeter=orthogonalPerimeter;outlineConnect=0;targetShapes=umlLifeline;portConstraint=eastwest;newEdgeStyle={&quot;edgeStyle&quot;:&quot;elbowEdgeStyle&quot;,&quot;elbow&quot;:&quot;vertical&quot;,&quot;curved&quot;:0,&quot;rounded&quot;:0};" vertex="1" parent="1">
          <mxGeometry x="-40" y="670" width="10" height="850" as="geometry" />
        </mxCell>
        <mxCell id="ELEsdhav3RuFbOq88L6e-104" value="" style="edgeStyle=elbowEdgeStyle;rounded=0;orthogonalLoop=1;jettySize=auto;html=1;elbow=vertical;curved=0;dashed=1;endArrow=none;endFill=0;" edge="1" parent="1" source="ELEsdhav3RuFbOq88L6e-10" target="ELEsdhav3RuFbOq88L6e-103">
          <mxGeometry relative="1" as="geometry" />
        </mxCell>
        <mxCell id="ELEsdhav3RuFbOq88L6e-10" value="" style="html=1;points=[];perimeter=orthogonalPerimeter;outlineConnect=0;targetShapes=umlLifeline;portConstraint=eastwest;newEdgeStyle={&quot;edgeStyle&quot;:&quot;elbowEdgeStyle&quot;,&quot;elbow&quot;:&quot;vertical&quot;,&quot;curved&quot;:0,&quot;rounded&quot;:0};" vertex="1" parent="1">
          <mxGeometry x="75" y="670" width="10" height="150" as="geometry" />
        </mxCell>
        <mxCell id="ELEsdhav3RuFbOq88L6e-26" value="" style="edgeStyle=elbowEdgeStyle;rounded=0;orthogonalLoop=1;jettySize=auto;html=1;elbow=vertical;curved=0;" edge="1" parent="1" source="ELEsdhav3RuFbOq88L6e-12">
          <mxGeometry relative="1" as="geometry">
            <mxPoint x="275" y="840" as="targetPoint" />
            <Array as="points">
              <mxPoint x="220" y="840" />
              <mxPoint x="230" y="830" />
            </Array>
          </mxGeometry>
        </mxCell>
        <mxCell id="ELEsdhav3RuFbOq88L6e-27" value="bet = &lt;br&gt;new(&lt;br&gt;vm.login,&lt;br&gt;vm.outcomeId,&lt;br&gt;vm.betSize)" style="edgeLabel;html=1;align=center;verticalAlign=middle;resizable=0;points=[];" vertex="1" connectable="0" parent="ELEsdhav3RuFbOq88L6e-26">
          <mxGeometry x="-0.304" y="2" relative="1" as="geometry">
            <mxPoint x="14" y="-48" as="offset" />
          </mxGeometry>
        </mxCell>
        <mxCell id="ELEsdhav3RuFbOq88L6e-32" value="" style="edgeStyle=elbowEdgeStyle;rounded=0;orthogonalLoop=1;jettySize=auto;html=1;elbow=vertical;curved=0;" edge="1" parent="1" source="ELEsdhav3RuFbOq88L6e-12">
          <mxGeometry relative="1" as="geometry">
            <mxPoint x="275" y="840.0952380952381" as="targetPoint" />
          </mxGeometry>
        </mxCell>
        <mxCell id="ELEsdhav3RuFbOq88L6e-33" value="" style="edgeStyle=elbowEdgeStyle;rounded=0;orthogonalLoop=1;jettySize=auto;html=1;elbow=vertical;curved=0;" edge="1" parent="1" source="ELEsdhav3RuFbOq88L6e-12">
          <mxGeometry relative="1" as="geometry">
            <mxPoint x="275" y="840.0952380952381" as="targetPoint" />
          </mxGeometry>
        </mxCell>
        <mxCell id="ELEsdhav3RuFbOq88L6e-34" value="" style="edgeStyle=elbowEdgeStyle;rounded=0;orthogonalLoop=1;jettySize=auto;html=1;elbow=vertical;curved=0;" edge="1" parent="1" source="ELEsdhav3RuFbOq88L6e-12" target="ELEsdhav3RuFbOq88L6e-23">
          <mxGeometry relative="1" as="geometry">
            <mxPoint x="275" y="840.0952380952381" as="targetPoint" />
          </mxGeometry>
        </mxCell>
        <mxCell id="ELEsdhav3RuFbOq88L6e-36" value="" style="edgeStyle=elbowEdgeStyle;rounded=0;orthogonalLoop=1;jettySize=auto;html=1;elbow=vertical;curved=0;" edge="1" parent="1" source="ELEsdhav3RuFbOq88L6e-12" target="ELEsdhav3RuFbOq88L6e-35">
          <mxGeometry relative="1" as="geometry">
            <Array as="points">
              <mxPoint x="330" y="880" />
              <mxPoint x="340" y="870" />
            </Array>
          </mxGeometry>
        </mxCell>
        <mxCell id="ELEsdhav3RuFbOq88L6e-37" value="applyBet(bet)" style="edgeLabel;html=1;align=center;verticalAlign=middle;resizable=0;points=[];" vertex="1" connectable="0" parent="ELEsdhav3RuFbOq88L6e-36">
          <mxGeometry x="-0.026" y="2" relative="1" as="geometry">
            <mxPoint as="offset" />
          </mxGeometry>
        </mxCell>
        <mxCell id="ELEsdhav3RuFbOq88L6e-12" value="" style="html=1;points=[];perimeter=orthogonalPerimeter;outlineConnect=0;targetShapes=umlLifeline;portConstraint=eastwest;newEdgeStyle={&quot;edgeStyle&quot;:&quot;elbowEdgeStyle&quot;,&quot;elbow&quot;:&quot;vertical&quot;,&quot;curved&quot;:0,&quot;rounded&quot;:0};" vertex="1" parent="1">
          <mxGeometry x="190" y="800" width="10" height="100" as="geometry" />
        </mxCell>
        <mxCell id="ELEsdhav3RuFbOq88L6e-31" value="" style="edgeStyle=orthogonalEdgeStyle;rounded=0;orthogonalLoop=1;jettySize=auto;html=1;endArrow=none;endFill=0;dashed=1;" edge="1" parent="1" source="ELEsdhav3RuFbOq88L6e-14" target="ELEsdhav3RuFbOq88L6e-35">
          <mxGeometry relative="1" as="geometry">
            <mxPoint x="370" y="850" as="targetPoint" />
            <Array as="points">
              <mxPoint x="370" y="880" />
              <mxPoint x="370" y="880" />
            </Array>
          </mxGeometry>
        </mxCell>
        <mxCell id="ELEsdhav3RuFbOq88L6e-14" value="BetApplicator" style="ellipse;shape=umlControl;whiteSpace=wrap;html=1;" vertex="1" parent="1">
          <mxGeometry x="330" y="535" width="80" height="85" as="geometry" />
        </mxCell>
        <mxCell id="ELEsdhav3RuFbOq88L6e-17" value="" style="edgeStyle=elbowEdgeStyle;rounded=0;orthogonalLoop=1;jettySize=auto;html=1;elbow=vertical;curved=0;" edge="1" parent="1" source="ELEsdhav3RuFbOq88L6e-7" target="ELEsdhav3RuFbOq88L6e-10">
          <mxGeometry relative="1" as="geometry">
            <mxPoint x="-20" y="700" as="sourcePoint" />
            <mxPoint x="85" y="700" as="targetPoint" />
            <Array as="points">
              <mxPoint x="50" y="740" />
            </Array>
          </mxGeometry>
        </mxCell>
        <mxCell id="ELEsdhav3RuFbOq88L6e-18" value="Указание &lt;br&gt;исхода" style="edgeLabel;html=1;align=center;verticalAlign=middle;resizable=0;points=[];" vertex="1" connectable="0" parent="ELEsdhav3RuFbOq88L6e-17">
          <mxGeometry x="-0.1333" y="-1" relative="1" as="geometry">
            <mxPoint as="offset" />
          </mxGeometry>
        </mxCell>
        <mxCell id="ELEsdhav3RuFbOq88L6e-19" value="" style="edgeStyle=elbowEdgeStyle;rounded=0;orthogonalLoop=1;jettySize=auto;html=1;elbow=vertical;curved=0;" edge="1" parent="1" source="ELEsdhav3RuFbOq88L6e-7">
          <mxGeometry relative="1" as="geometry">
            <mxPoint x="-30" y="780" as="sourcePoint" />
            <mxPoint x="80" y="780" as="targetPoint" />
            <Array as="points">
              <mxPoint x="50" y="780" />
            </Array>
          </mxGeometry>
        </mxCell>
        <mxCell id="ELEsdhav3RuFbOq88L6e-20" value="Подтверждение &lt;br&gt;ставки" style="edgeLabel;html=1;align=center;verticalAlign=middle;resizable=0;points=[];" vertex="1" connectable="0" parent="ELEsdhav3RuFbOq88L6e-19">
          <mxGeometry x="-0.1333" y="-1" relative="1" as="geometry">
            <mxPoint as="offset" />
          </mxGeometry>
        </mxCell>
        <mxCell id="ELEsdhav3RuFbOq88L6e-21" value="" style="edgeStyle=elbowEdgeStyle;rounded=0;orthogonalLoop=1;jettySize=auto;html=1;elbow=vertical;curved=0;" edge="1" parent="1" source="ELEsdhav3RuFbOq88L6e-10" target="ELEsdhav3RuFbOq88L6e-12">
          <mxGeometry relative="1" as="geometry">
            <mxPoint x="100" y="850" as="sourcePoint" />
            <mxPoint x="210" y="850" as="targetPoint" />
            <Array as="points">
              <mxPoint x="180" y="810" />
              <mxPoint x="180" y="850" />
            </Array>
          </mxGeometry>
        </mxCell>
        <mxCell id="ELEsdhav3RuFbOq88L6e-22" value="Отправка &lt;br&gt;viewModel" style="edgeLabel;html=1;align=center;verticalAlign=middle;resizable=0;points=[];" vertex="1" connectable="0" parent="ELEsdhav3RuFbOq88L6e-21">
          <mxGeometry x="-0.1333" y="-1" relative="1" as="geometry">
            <mxPoint as="offset" />
          </mxGeometry>
        </mxCell>
        <mxCell id="ELEsdhav3RuFbOq88L6e-25" value="" style="edgeStyle=orthogonalEdgeStyle;rounded=0;orthogonalLoop=1;jettySize=auto;html=1;dashed=1;endArrow=none;endFill=0;" edge="1" parent="1" source="ELEsdhav3RuFbOq88L6e-23" target="ELEsdhav3RuFbOq88L6e-55">
          <mxGeometry relative="1" as="geometry">
            <mxPoint x="280" y="830" as="targetPoint" />
            <Array as="points">
              <mxPoint x="280" y="960" />
              <mxPoint x="280" y="960" />
            </Array>
          </mxGeometry>
        </mxCell>
        <mxCell id="ELEsdhav3RuFbOq88L6e-23" value="Bet" style="ellipse;shape=umlEntity;whiteSpace=wrap;html=1;" vertex="1" parent="1">
          <mxGeometry x="260" y="820" width="40" height="40" as="geometry" />
        </mxCell>
        <mxCell id="ELEsdhav3RuFbOq88L6e-41" value="" style="edgeStyle=elbowEdgeStyle;rounded=0;orthogonalLoop=1;jettySize=auto;html=1;elbow=vertical;curved=0;" edge="1" parent="1" source="ELEsdhav3RuFbOq88L6e-35" target="ELEsdhav3RuFbOq88L6e-39">
          <mxGeometry relative="1" as="geometry">
            <Array as="points">
              <mxPoint x="410" y="890" />
              <mxPoint x="440" y="880" />
            </Array>
          </mxGeometry>
        </mxCell>
        <mxCell id="ELEsdhav3RuFbOq88L6e-42" value="getByLogin&lt;br&gt;(bet.login)" style="edgeLabel;html=1;align=center;verticalAlign=middle;resizable=0;points=[];" vertex="1" connectable="0" parent="ELEsdhav3RuFbOq88L6e-41">
          <mxGeometry x="-0.4807" y="-1" relative="1" as="geometry">
            <mxPoint x="16" y="-1" as="offset" />
          </mxGeometry>
        </mxCell>
        <mxCell id="ELEsdhav3RuFbOq88L6e-35" value="" style="html=1;points=[];perimeter=orthogonalPerimeter;outlineConnect=0;targetShapes=umlLifeline;portConstraint=eastwest;newEdgeStyle={&quot;edgeStyle&quot;:&quot;elbowEdgeStyle&quot;,&quot;elbow&quot;:&quot;vertical&quot;,&quot;curved&quot;:0,&quot;rounded&quot;:0};" vertex="1" parent="1">
          <mxGeometry x="365" y="870" width="10" height="570" as="geometry" />
        </mxCell>
        <mxCell id="ELEsdhav3RuFbOq88L6e-40" value="" style="edgeStyle=orthogonalEdgeStyle;rounded=0;orthogonalLoop=1;jettySize=auto;html=1;endArrow=none;endFill=0;dashed=1;" edge="1" parent="1" source="ELEsdhav3RuFbOq88L6e-38" target="ELEsdhav3RuFbOq88L6e-39">
          <mxGeometry relative="1" as="geometry">
            <Array as="points">
              <mxPoint x="470" y="860" />
              <mxPoint x="470" y="860" />
            </Array>
          </mxGeometry>
        </mxCell>
        <mxCell id="ELEsdhav3RuFbOq88L6e-38" value="User&lt;br&gt;Repository" style="ellipse;shape=umlControl;whiteSpace=wrap;html=1;" vertex="1" parent="1">
          <mxGeometry x="430" y="537.5" width="80" height="85" as="geometry" />
        </mxCell>
        <mxCell id="ELEsdhav3RuFbOq88L6e-43" value="" style="edgeStyle=elbowEdgeStyle;rounded=0;orthogonalLoop=1;jettySize=auto;html=1;elbow=vertical;curved=0;" edge="1" parent="1" source="ELEsdhav3RuFbOq88L6e-39" target="ELEsdhav3RuFbOq88L6e-35">
          <mxGeometry relative="1" as="geometry">
            <Array as="points">
              <mxPoint x="460" y="930" />
            </Array>
          </mxGeometry>
        </mxCell>
        <mxCell id="ELEsdhav3RuFbOq88L6e-44" value="user" style="edgeLabel;html=1;align=center;verticalAlign=middle;resizable=0;points=[];" vertex="1" connectable="0" parent="ELEsdhav3RuFbOq88L6e-43">
          <mxGeometry x="-0.1052" relative="1" as="geometry">
            <mxPoint as="offset" />
          </mxGeometry>
        </mxCell>
        <mxCell id="ELEsdhav3RuFbOq88L6e-93" value="" style="edgeStyle=elbowEdgeStyle;rounded=0;orthogonalLoop=1;jettySize=auto;html=1;elbow=vertical;curved=0;dashed=1;endArrow=none;endFill=0;" edge="1" parent="1" source="ELEsdhav3RuFbOq88L6e-39" target="ELEsdhav3RuFbOq88L6e-92">
          <mxGeometry relative="1" as="geometry" />
        </mxCell>
        <mxCell id="ELEsdhav3RuFbOq88L6e-39" value="" style="html=1;points=[];perimeter=orthogonalPerimeter;outlineConnect=0;targetShapes=umlLifeline;portConstraint=eastwest;newEdgeStyle={&quot;edgeStyle&quot;:&quot;elbowEdgeStyle&quot;,&quot;elbow&quot;:&quot;vertical&quot;,&quot;curved&quot;:0,&quot;rounded&quot;:0};" vertex="1" parent="1">
          <mxGeometry x="465" y="890" width="10" height="50" as="geometry" />
        </mxCell>
        <mxCell id="ELEsdhav3RuFbOq88L6e-47" value="" style="edgeStyle=orthogonalEdgeStyle;rounded=0;orthogonalLoop=1;jettySize=auto;html=1;endArrow=none;endFill=0;dashed=1;" edge="1" parent="1" source="ELEsdhav3RuFbOq88L6e-45" target="ELEsdhav3RuFbOq88L6e-46">
          <mxGeometry relative="1" as="geometry">
            <mxPoint x="580" y="910" as="targetPoint" />
            <Array as="points">
              <mxPoint x="580" y="930" />
              <mxPoint x="580" y="930" />
            </Array>
          </mxGeometry>
        </mxCell>
        <mxCell id="ELEsdhav3RuFbOq88L6e-45" value="Outcome&lt;br&gt;Repository" style="ellipse;shape=umlControl;whiteSpace=wrap;html=1;" vertex="1" parent="1">
          <mxGeometry x="540" y="542" width="80" height="85" as="geometry" />
        </mxCell>
        <mxCell id="ELEsdhav3RuFbOq88L6e-46" value="" style="html=1;points=[];perimeter=orthogonalPerimeter;outlineConnect=0;targetShapes=umlLifeline;portConstraint=eastwest;newEdgeStyle={&quot;edgeStyle&quot;:&quot;elbowEdgeStyle&quot;,&quot;elbow&quot;:&quot;vertical&quot;,&quot;curved&quot;:0,&quot;rounded&quot;:0};" vertex="1" parent="1">
          <mxGeometry x="575" y="950" width="10" height="50" as="geometry" />
        </mxCell>
        <mxCell id="ELEsdhav3RuFbOq88L6e-48" value="" style="edgeStyle=elbowEdgeStyle;rounded=0;orthogonalLoop=1;jettySize=auto;html=1;elbow=vertical;curved=0;" edge="1" parent="1" source="ELEsdhav3RuFbOq88L6e-35" target="ELEsdhav3RuFbOq88L6e-46">
          <mxGeometry relative="1" as="geometry">
            <mxPoint x="410" y="980" as="sourcePoint" />
            <mxPoint x="500" y="980" as="targetPoint" />
            <Array as="points">
              <mxPoint x="540" y="960" />
              <mxPoint x="445" y="980" />
              <mxPoint x="475" y="970" />
            </Array>
          </mxGeometry>
        </mxCell>
        <mxCell id="ELEsdhav3RuFbOq88L6e-49" value="getById(bet.outcomeId)" style="edgeLabel;html=1;align=center;verticalAlign=middle;resizable=0;points=[];" vertex="1" connectable="0" parent="ELEsdhav3RuFbOq88L6e-48">
          <mxGeometry x="-0.4807" y="-1" relative="1" as="geometry">
            <mxPoint x="48" y="-1" as="offset" />
          </mxGeometry>
        </mxCell>
        <mxCell id="ELEsdhav3RuFbOq88L6e-50" value="" style="edgeStyle=elbowEdgeStyle;rounded=0;orthogonalLoop=1;jettySize=auto;html=1;elbow=vertical;curved=0;" edge="1" parent="1" source="ELEsdhav3RuFbOq88L6e-46" target="ELEsdhav3RuFbOq88L6e-35">
          <mxGeometry relative="1" as="geometry">
            <mxPoint x="400" y="1030" as="sourcePoint" />
            <mxPoint x="600" y="1030" as="targetPoint" />
            <Array as="points">
              <mxPoint x="440" y="990" />
              <mxPoint x="565" y="1030" />
              <mxPoint x="470" y="1050" />
              <mxPoint x="500" y="1040" />
            </Array>
          </mxGeometry>
        </mxCell>
        <mxCell id="ELEsdhav3RuFbOq88L6e-51" value="outcome" style="edgeLabel;html=1;align=center;verticalAlign=middle;resizable=0;points=[];" vertex="1" connectable="0" parent="ELEsdhav3RuFbOq88L6e-50">
          <mxGeometry x="-0.4807" y="-1" relative="1" as="geometry">
            <mxPoint x="-48" y="-1" as="offset" />
          </mxGeometry>
        </mxCell>
        <mxCell id="ELEsdhav3RuFbOq88L6e-54" value="" style="edgeStyle=orthogonalEdgeStyle;rounded=0;orthogonalLoop=1;jettySize=auto;html=1;endArrow=none;endFill=0;dashed=1;" edge="1" parent="1" source="ELEsdhav3RuFbOq88L6e-52" target="ELEsdhav3RuFbOq88L6e-53">
          <mxGeometry relative="1" as="geometry">
            <Array as="points">
              <mxPoint x="690" y="700" />
              <mxPoint x="690" y="700" />
            </Array>
          </mxGeometry>
        </mxCell>
        <mxCell id="ELEsdhav3RuFbOq88L6e-52" value="Bet&lt;br&gt;Repository" style="ellipse;shape=umlControl;whiteSpace=wrap;html=1;" vertex="1" parent="1">
          <mxGeometry x="650" y="542" width="80" height="85" as="geometry" />
        </mxCell>
        <mxCell id="ELEsdhav3RuFbOq88L6e-53" value="" style="html=1;points=[];perimeter=orthogonalPerimeter;outlineConnect=0;targetShapes=umlLifeline;portConstraint=eastwest;newEdgeStyle={&quot;edgeStyle&quot;:&quot;elbowEdgeStyle&quot;,&quot;elbow&quot;:&quot;vertical&quot;,&quot;curved&quot;:0,&quot;rounded&quot;:0};" vertex="1" parent="1">
          <mxGeometry x="685" y="1090" width="10" height="30" as="geometry" />
        </mxCell>
        <mxCell id="ELEsdhav3RuFbOq88L6e-60" value="" style="edgeStyle=elbowEdgeStyle;rounded=0;orthogonalLoop=1;jettySize=auto;html=1;elbow=vertical;curved=0;" edge="1" parent="1" source="ELEsdhav3RuFbOq88L6e-35" target="ELEsdhav3RuFbOq88L6e-59">
          <mxGeometry relative="1" as="geometry">
            <Array as="points">
              <mxPoint x="390" y="1050" />
              <mxPoint x="440" y="1040" />
              <mxPoint x="420" y="1030" />
              <mxPoint x="420" y="1050" />
              <mxPoint x="370" y="1060" />
            </Array>
          </mxGeometry>
        </mxCell>
        <mxCell id="ELEsdhav3RuFbOq88L6e-61" value="storageBet=&lt;br&gt;new(&lt;br&gt;user,&lt;br&gt;outcome,&lt;br&gt;price,&lt;br&gt;status)" style="edgeLabel;html=1;align=center;verticalAlign=middle;resizable=0;points=[];" vertex="1" connectable="0" parent="ELEsdhav3RuFbOq88L6e-60">
          <mxGeometry x="-0.3894" y="1" relative="1" as="geometry">
            <mxPoint x="10" y="-9" as="offset" />
          </mxGeometry>
        </mxCell>
        <mxCell id="ELEsdhav3RuFbOq88L6e-62" value="" style="edgeStyle=elbowEdgeStyle;rounded=0;orthogonalLoop=1;jettySize=auto;html=1;elbow=vertical;curved=0;" edge="1" parent="1" source="ELEsdhav3RuFbOq88L6e-55" target="ELEsdhav3RuFbOq88L6e-35">
          <mxGeometry relative="1" as="geometry">
            <Array as="points">
              <mxPoint x="310" y="1010" />
              <mxPoint x="310" y="1030" />
              <mxPoint x="320" y="1030" />
              <mxPoint x="310" y="1040" />
            </Array>
          </mxGeometry>
        </mxCell>
        <mxCell id="ELEsdhav3RuFbOq88L6e-65" value="price" style="edgeLabel;html=1;align=center;verticalAlign=middle;resizable=0;points=[];" vertex="1" connectable="0" parent="ELEsdhav3RuFbOq88L6e-62">
          <mxGeometry x="-0.2083" y="-1" relative="1" as="geometry">
            <mxPoint as="offset" />
          </mxGeometry>
        </mxCell>
        <mxCell id="ELEsdhav3RuFbOq88L6e-55" value="" style="html=1;points=[];perimeter=orthogonalPerimeter;outlineConnect=0;targetShapes=umlLifeline;portConstraint=eastwest;newEdgeStyle={&quot;edgeStyle&quot;:&quot;elbowEdgeStyle&quot;,&quot;elbow&quot;:&quot;vertical&quot;,&quot;curved&quot;:0,&quot;rounded&quot;:0};" vertex="1" parent="1">
          <mxGeometry x="275" y="990" width="10" height="60" as="geometry" />
        </mxCell>
        <mxCell id="ELEsdhav3RuFbOq88L6e-59" value="Storage&lt;br&gt;Bet" style="ellipse;shape=umlEntity;whiteSpace=wrap;html=1;" vertex="1" parent="1">
          <mxGeometry x="490" y="1030" width="40" height="40" as="geometry" />
        </mxCell>
        <mxCell id="ELEsdhav3RuFbOq88L6e-63" value="" style="edgeStyle=elbowEdgeStyle;rounded=0;orthogonalLoop=1;jettySize=auto;html=1;elbow=vertical;curved=0;" edge="1" parent="1" source="ELEsdhav3RuFbOq88L6e-35" target="ELEsdhav3RuFbOq88L6e-55">
          <mxGeometry relative="1" as="geometry">
            <mxPoint x="360" y="1030" as="sourcePoint" />
            <mxPoint x="375" y="1030" as="targetPoint" />
            <Array as="points">
              <mxPoint x="310" y="990" />
              <mxPoint x="340" y="1020" />
              <mxPoint x="320" y="1010" />
            </Array>
          </mxGeometry>
        </mxCell>
        <mxCell id="ELEsdhav3RuFbOq88L6e-64" value="getPrice()" style="edgeLabel;html=1;align=center;verticalAlign=middle;resizable=0;points=[];" vertex="1" connectable="0" parent="ELEsdhav3RuFbOq88L6e-63">
          <mxGeometry x="0.4397" relative="1" as="geometry">
            <mxPoint x="23" as="offset" />
          </mxGeometry>
        </mxCell>
        <mxCell id="ELEsdhav3RuFbOq88L6e-66" value="" style="edgeStyle=elbowEdgeStyle;rounded=0;orthogonalLoop=1;jettySize=auto;html=1;elbow=vertical;curved=0;" edge="1" parent="1" source="ELEsdhav3RuFbOq88L6e-55" target="ELEsdhav3RuFbOq88L6e-35">
          <mxGeometry relative="1" as="geometry">
            <mxPoint x="295" y="1050" as="sourcePoint" />
            <mxPoint x="370" y="1050" as="targetPoint" />
            <Array as="points">
              <mxPoint x="290" y="1050" />
              <mxPoint x="300" y="1040" />
              <mxPoint x="330" y="1040" />
              <mxPoint x="320" y="1050" />
              <mxPoint x="330" y="1050" />
              <mxPoint x="320" y="1060" />
            </Array>
          </mxGeometry>
        </mxCell>
        <mxCell id="ELEsdhav3RuFbOq88L6e-67" value="status" style="edgeLabel;html=1;align=center;verticalAlign=middle;resizable=0;points=[];" vertex="1" connectable="0" parent="ELEsdhav3RuFbOq88L6e-66">
          <mxGeometry x="-0.2083" y="-1" relative="1" as="geometry">
            <mxPoint as="offset" />
          </mxGeometry>
        </mxCell>
        <mxCell id="ELEsdhav3RuFbOq88L6e-68" value="" style="edgeStyle=elbowEdgeStyle;rounded=0;orthogonalLoop=1;jettySize=auto;html=1;elbow=vertical;curved=0;" edge="1" parent="1" source="ELEsdhav3RuFbOq88L6e-35" target="ELEsdhav3RuFbOq88L6e-55">
          <mxGeometry relative="1" as="geometry">
            <mxPoint x="370" y="1040" as="sourcePoint" />
            <mxPoint x="295" y="1040" as="targetPoint" />
            <Array as="points">
              <mxPoint x="300" y="1030" />
              <mxPoint x="310" y="1020" />
              <mxPoint x="310" y="1040" />
              <mxPoint x="350" y="1040" />
              <mxPoint x="330" y="1030" />
            </Array>
          </mxGeometry>
        </mxCell>
        <mxCell id="ELEsdhav3RuFbOq88L6e-69" value="getStatus()" style="edgeLabel;html=1;align=center;verticalAlign=middle;resizable=0;points=[];" vertex="1" connectable="0" parent="ELEsdhav3RuFbOq88L6e-68">
          <mxGeometry x="0.4397" relative="1" as="geometry">
            <mxPoint x="23" as="offset" />
          </mxGeometry>
        </mxCell>
        <mxCell id="ELEsdhav3RuFbOq88L6e-70" value="" style="edgeStyle=elbowEdgeStyle;rounded=0;orthogonalLoop=1;jettySize=auto;html=1;elbow=vertical;curved=0;" edge="1" parent="1" source="ELEsdhav3RuFbOq88L6e-35" target="ELEsdhav3RuFbOq88L6e-53">
          <mxGeometry relative="1" as="geometry">
            <mxPoint x="425" y="1110" as="sourcePoint" />
            <mxPoint x="505" y="1110" as="targetPoint" />
            <Array as="points">
              <mxPoint x="530" y="1100" />
              <mxPoint x="430" y="1110" />
              <mxPoint x="440" y="1100" />
              <mxPoint x="470" y="1100" />
              <mxPoint x="460" y="1110" />
              <mxPoint x="470" y="1110" />
              <mxPoint x="460" y="1120" />
            </Array>
          </mxGeometry>
        </mxCell>
        <mxCell id="ELEsdhav3RuFbOq88L6e-71" value="add(storageBet)" style="edgeLabel;html=1;align=center;verticalAlign=middle;resizable=0;points=[];" vertex="1" connectable="0" parent="ELEsdhav3RuFbOq88L6e-70">
          <mxGeometry x="-0.2083" y="-1" relative="1" as="geometry">
            <mxPoint as="offset" />
          </mxGeometry>
        </mxCell>
        <mxCell id="ELEsdhav3RuFbOq88L6e-75" value="result = getPlayingResult(storageBet)" style="html=1;align=left;spacingLeft=2;endArrow=block;rounded=0;edgeStyle=orthogonalEdgeStyle;curved=0;rounded=0;" edge="1" target="ELEsdhav3RuFbOq88L6e-35" parent="1">
          <mxGeometry x="0.4737" y="15" relative="1" as="geometry">
            <mxPoint x="375" y="1120" as="sourcePoint" />
            <Array as="points">
              <mxPoint x="375" y="1210" />
              <mxPoint x="405" y="1210" />
              <mxPoint x="405" y="1250" />
            </Array>
            <mxPoint x="380" y="1150" as="targetPoint" />
            <mxPoint as="offset" />
          </mxGeometry>
        </mxCell>
        <mxCell id="ELEsdhav3RuFbOq88L6e-78" value="" style="edgeStyle=orthogonalEdgeStyle;rounded=0;orthogonalLoop=1;jettySize=auto;html=1;endArrow=none;endFill=0;dashed=1;" edge="1" parent="1" source="ELEsdhav3RuFbOq88L6e-76" target="ELEsdhav3RuFbOq88L6e-77">
          <mxGeometry relative="1" as="geometry">
            <Array as="points">
              <mxPoint x="810" y="700" />
              <mxPoint x="810" y="700" />
            </Array>
          </mxGeometry>
        </mxCell>
        <mxCell id="ELEsdhav3RuFbOq88L6e-76" value="User&lt;br&gt;Repository" style="ellipse;shape=umlControl;whiteSpace=wrap;html=1;" vertex="1" parent="1">
          <mxGeometry x="770" y="542" width="80" height="85" as="geometry" />
        </mxCell>
        <mxCell id="ELEsdhav3RuFbOq88L6e-77" value="" style="html=1;points=[];perimeter=orthogonalPerimeter;outlineConnect=0;targetShapes=umlLifeline;portConstraint=eastwest;newEdgeStyle={&quot;edgeStyle&quot;:&quot;elbowEdgeStyle&quot;,&quot;elbow&quot;:&quot;vertical&quot;,&quot;curved&quot;:0,&quot;rounded&quot;:0};" vertex="1" parent="1">
          <mxGeometry x="805" y="1140" width="10" height="29" as="geometry" />
        </mxCell>
        <mxCell id="ELEsdhav3RuFbOq88L6e-79" value="" style="edgeStyle=elbowEdgeStyle;rounded=0;orthogonalLoop=1;jettySize=auto;html=1;elbow=vertical;curved=0;" edge="1" parent="1" source="ELEsdhav3RuFbOq88L6e-35" target="ELEsdhav3RuFbOq88L6e-77">
          <mxGeometry relative="1" as="geometry">
            <mxPoint x="400" y="1150" as="sourcePoint" />
            <mxPoint x="710" y="1150" as="targetPoint" />
            <Array as="points">
              <mxPoint x="555" y="1150" />
              <mxPoint x="455" y="1160" />
              <mxPoint x="465" y="1150" />
              <mxPoint x="495" y="1150" />
              <mxPoint x="485" y="1160" />
              <mxPoint x="495" y="1160" />
              <mxPoint x="485" y="1170" />
            </Array>
          </mxGeometry>
        </mxCell>
        <mxCell id="ELEsdhav3RuFbOq88L6e-80" value="changeUserBalance(user,&amp;nbsp; - price)" style="edgeLabel;html=1;align=center;verticalAlign=middle;resizable=0;points=[];" vertex="1" connectable="0" parent="ELEsdhav3RuFbOq88L6e-79">
          <mxGeometry x="-0.2083" y="-1" relative="1" as="geometry">
            <mxPoint as="offset" />
          </mxGeometry>
        </mxCell>
        <mxCell id="ELEsdhav3RuFbOq88L6e-81" value="opt" style="shape=umlFrame;whiteSpace=wrap;html=1;pointerEvents=0;width=50;height=20;" vertex="1" parent="1">
          <mxGeometry x="250" y="1260" width="600" height="80" as="geometry" />
        </mxCell>
        <mxCell id="ELEsdhav3RuFbOq88L6e-82" value="" style="html=1;points=[];perimeter=orthogonalPerimeter;outlineConnect=0;targetShapes=umlLifeline;portConstraint=eastwest;newEdgeStyle={&quot;edgeStyle&quot;:&quot;elbowEdgeStyle&quot;,&quot;elbow&quot;:&quot;vertical&quot;,&quot;curved&quot;:0,&quot;rounded&quot;:0};" vertex="1" parent="1">
          <mxGeometry x="805" y="1291" width="10" height="29" as="geometry" />
        </mxCell>
        <mxCell id="ELEsdhav3RuFbOq88L6e-83" value="[result.isWin]" style="text;html=1;align=center;verticalAlign=middle;resizable=0;points=[];autosize=1;strokeColor=none;fillColor=none;" vertex="1" parent="1">
          <mxGeometry x="250" y="1280" width="90" height="30" as="geometry" />
        </mxCell>
        <mxCell id="ELEsdhav3RuFbOq88L6e-85" value="" style="edgeStyle=elbowEdgeStyle;rounded=0;orthogonalLoop=1;jettySize=auto;html=1;elbow=vertical;curved=0;" edge="1" parent="1" source="ELEsdhav3RuFbOq88L6e-35" target="ELEsdhav3RuFbOq88L6e-82">
          <mxGeometry relative="1" as="geometry">
            <mxPoint x="385" y="1320" as="sourcePoint" />
            <mxPoint x="695" y="1320" as="targetPoint" />
            <Array as="points">
              <mxPoint x="410" y="1300" />
              <mxPoint x="540" y="1320" />
              <mxPoint x="440" y="1330" />
              <mxPoint x="450" y="1320" />
              <mxPoint x="480" y="1320" />
              <mxPoint x="470" y="1330" />
              <mxPoint x="480" y="1330" />
              <mxPoint x="470" y="1340" />
            </Array>
          </mxGeometry>
        </mxCell>
        <mxCell id="ELEsdhav3RuFbOq88L6e-86" value="changeUserBalance(user,&amp;nbsp; price*result.winPrice)" style="edgeLabel;html=1;align=center;verticalAlign=middle;resizable=0;points=[];" vertex="1" connectable="0" parent="ELEsdhav3RuFbOq88L6e-85">
          <mxGeometry x="-0.2083" y="-1" relative="1" as="geometry">
            <mxPoint as="offset" />
          </mxGeometry>
        </mxCell>
        <mxCell id="ELEsdhav3RuFbOq88L6e-87" value="" style="edgeStyle=orthogonalEdgeStyle;rounded=0;orthogonalLoop=1;jettySize=auto;html=1;dashed=1;endArrow=none;endFill=0;" edge="1" parent="1" source="ELEsdhav3RuFbOq88L6e-77" target="ELEsdhav3RuFbOq88L6e-82">
          <mxGeometry relative="1" as="geometry">
            <mxPoint x="860" y="1160" as="sourcePoint" />
            <mxPoint x="860" y="1673" as="targetPoint" />
            <Array as="points">
              <mxPoint x="810" y="1250" />
              <mxPoint x="810" y="1250" />
            </Array>
          </mxGeometry>
        </mxCell>
        <mxCell id="ELEsdhav3RuFbOq88L6e-88" value="" style="edgeStyle=orthogonalEdgeStyle;rounded=0;orthogonalLoop=1;jettySize=auto;html=1;dashed=1;endArrow=none;endFill=0;" edge="1" parent="1" source="ELEsdhav3RuFbOq88L6e-82" target="ELEsdhav3RuFbOq88L6e-89">
          <mxGeometry relative="1" as="geometry">
            <mxPoint x="826" y="1360" as="sourcePoint" />
            <mxPoint x="826" y="1482" as="targetPoint" />
            <Array as="points">
              <mxPoint x="810" y="1400" />
              <mxPoint x="810" y="1400" />
            </Array>
          </mxGeometry>
        </mxCell>
        <mxCell id="ELEsdhav3RuFbOq88L6e-89" value="" style="html=1;points=[];perimeter=orthogonalPerimeter;outlineConnect=0;targetShapes=umlLifeline;portConstraint=eastwest;newEdgeStyle={&quot;edgeStyle&quot;:&quot;elbowEdgeStyle&quot;,&quot;elbow&quot;:&quot;vertical&quot;,&quot;curved&quot;:0,&quot;rounded&quot;:0};" vertex="1" parent="1">
          <mxGeometry x="805" y="1391" width="10" height="29" as="geometry" />
        </mxCell>
        <mxCell id="ELEsdhav3RuFbOq88L6e-90" value="" style="edgeStyle=elbowEdgeStyle;rounded=0;orthogonalLoop=1;jettySize=auto;html=1;elbow=vertical;curved=0;" edge="1" parent="1" source="ELEsdhav3RuFbOq88L6e-35" target="ELEsdhav3RuFbOq88L6e-89">
          <mxGeometry relative="1" as="geometry">
            <mxPoint x="397" y="1405.21" as="sourcePoint" />
            <mxPoint x="827" y="1405.21" as="targetPoint" />
            <Array as="points">
              <mxPoint x="440" y="1420" />
              <mxPoint x="400" y="1410" />
              <mxPoint x="432" y="1405.21" />
              <mxPoint x="562" y="1425.21" />
              <mxPoint x="462" y="1435.21" />
              <mxPoint x="472" y="1425.21" />
              <mxPoint x="502" y="1425.21" />
              <mxPoint x="492" y="1435.21" />
              <mxPoint x="502" y="1435.21" />
              <mxPoint x="492" y="1445.21" />
            </Array>
          </mxGeometry>
        </mxCell>
        <mxCell id="ELEsdhav3RuFbOq88L6e-91" value="updateAuthorizeUserData(newUser)" style="edgeLabel;html=1;align=center;verticalAlign=middle;resizable=0;points=[];" vertex="1" connectable="0" parent="ELEsdhav3RuFbOq88L6e-90">
          <mxGeometry x="-0.2083" y="-1" relative="1" as="geometry">
            <mxPoint as="offset" />
          </mxGeometry>
        </mxCell>
        <mxCell id="ELEsdhav3RuFbOq88L6e-94" value="" style="edgeStyle=elbowEdgeStyle;rounded=0;orthogonalLoop=1;jettySize=auto;html=1;elbow=vertical;curved=0;" edge="1" parent="1" source="ELEsdhav3RuFbOq88L6e-35" target="ELEsdhav3RuFbOq88L6e-92">
          <mxGeometry relative="1" as="geometry">
            <Array as="points">
              <mxPoint x="390" y="1360" />
            </Array>
          </mxGeometry>
        </mxCell>
        <mxCell id="ELEsdhav3RuFbOq88L6e-95" value="getByLogin&lt;br&gt;(login)" style="edgeLabel;html=1;align=center;verticalAlign=middle;resizable=0;points=[];" vertex="1" connectable="0" parent="ELEsdhav3RuFbOq88L6e-94">
          <mxGeometry x="-0.5092" y="1" relative="1" as="geometry">
            <mxPoint x="17" y="1" as="offset" />
          </mxGeometry>
        </mxCell>
        <mxCell id="ELEsdhav3RuFbOq88L6e-96" value="" style="edgeStyle=elbowEdgeStyle;rounded=0;orthogonalLoop=1;jettySize=auto;html=1;elbow=vertical;curved=0;" edge="1" parent="1" source="ELEsdhav3RuFbOq88L6e-92" target="ELEsdhav3RuFbOq88L6e-35">
          <mxGeometry relative="1" as="geometry">
            <Array as="points">
              <mxPoint x="440" y="1390" />
            </Array>
          </mxGeometry>
        </mxCell>
        <mxCell id="ELEsdhav3RuFbOq88L6e-97" value="newUser" style="edgeLabel;html=1;align=center;verticalAlign=middle;resizable=0;points=[];" vertex="1" connectable="0" parent="ELEsdhav3RuFbOq88L6e-96">
          <mxGeometry x="-0.2044" y="1" relative="1" as="geometry">
            <mxPoint as="offset" />
          </mxGeometry>
        </mxCell>
        <mxCell id="ELEsdhav3RuFbOq88L6e-92" value="" style="html=1;points=[];perimeter=orthogonalPerimeter;outlineConnect=0;targetShapes=umlLifeline;portConstraint=eastwest;newEdgeStyle={&quot;edgeStyle&quot;:&quot;elbowEdgeStyle&quot;,&quot;elbow&quot;:&quot;vertical&quot;,&quot;curved&quot;:0,&quot;rounded&quot;:0};" vertex="1" parent="1">
          <mxGeometry x="465" y="1350" width="10" height="50" as="geometry" />
        </mxCell>
        <mxCell id="ELEsdhav3RuFbOq88L6e-99" value="" style="edgeStyle=elbowEdgeStyle;rounded=0;orthogonalLoop=1;jettySize=auto;html=1;elbow=vertical;curved=0;" edge="1" parent="1" source="ELEsdhav3RuFbOq88L6e-35" target="ELEsdhav3RuFbOq88L6e-98">
          <mxGeometry relative="1" as="geometry">
            <Array as="points">
              <mxPoint x="340" y="1430" />
              <mxPoint x="350" y="1420" />
            </Array>
          </mxGeometry>
        </mxCell>
        <mxCell id="ELEsdhav3RuFbOq88L6e-100" value="result" style="edgeLabel;html=1;align=center;verticalAlign=middle;resizable=0;points=[];" vertex="1" connectable="0" parent="ELEsdhav3RuFbOq88L6e-99">
          <mxGeometry x="0.4274" y="1" relative="1" as="geometry">
            <mxPoint as="offset" />
          </mxGeometry>
        </mxCell>
        <mxCell id="ELEsdhav3RuFbOq88L6e-101" value="" style="edgeStyle=elbowEdgeStyle;rounded=0;orthogonalLoop=1;jettySize=auto;html=1;elbow=vertical;curved=0;dashed=1;endArrow=none;endFill=0;" edge="1" parent="1" source="ELEsdhav3RuFbOq88L6e-98" target="ELEsdhav3RuFbOq88L6e-12">
          <mxGeometry relative="1" as="geometry" />
        </mxCell>
        <mxCell id="ELEsdhav3RuFbOq88L6e-107" value="" style="edgeStyle=elbowEdgeStyle;rounded=0;orthogonalLoop=1;jettySize=auto;html=1;elbow=vertical;curved=0;" edge="1" parent="1" source="ELEsdhav3RuFbOq88L6e-98" target="ELEsdhav3RuFbOq88L6e-103">
          <mxGeometry relative="1" as="geometry" />
        </mxCell>
        <mxCell id="ELEsdhav3RuFbOq88L6e-108" value="передача &lt;br&gt;информации &lt;br&gt;о результате &lt;br&gt;ставки" style="edgeLabel;html=1;align=center;verticalAlign=middle;resizable=0;points=[];" vertex="1" connectable="0" parent="ELEsdhav3RuFbOq88L6e-107">
          <mxGeometry x="0.2903" y="2" relative="1" as="geometry">
            <mxPoint x="18" y="-2" as="offset" />
          </mxGeometry>
        </mxCell>
        <mxCell id="ELEsdhav3RuFbOq88L6e-98" value="" style="html=1;points=[];perimeter=orthogonalPerimeter;outlineConnect=0;targetShapes=umlLifeline;portConstraint=eastwest;newEdgeStyle={&quot;edgeStyle&quot;:&quot;elbowEdgeStyle&quot;,&quot;elbow&quot;:&quot;vertical&quot;,&quot;curved&quot;:0,&quot;rounded&quot;:0};" vertex="1" parent="1">
          <mxGeometry x="190" y="1400" width="10" height="90" as="geometry" />
        </mxCell>
        <mxCell id="ELEsdhav3RuFbOq88L6e-103" value="" style="html=1;points=[];perimeter=orthogonalPerimeter;outlineConnect=0;targetShapes=umlLifeline;portConstraint=eastwest;newEdgeStyle={&quot;edgeStyle&quot;:&quot;elbowEdgeStyle&quot;,&quot;elbow&quot;:&quot;vertical&quot;,&quot;curved&quot;:0,&quot;rounded&quot;:0};" vertex="1" parent="1">
          <mxGeometry x="75" y="1390" width="10" height="120" as="geometry" />
        </mxCell>
        <mxCell id="ELEsdhav3RuFbOq88L6e-109" value="" style="edgeStyle=elbowEdgeStyle;rounded=0;orthogonalLoop=1;jettySize=auto;html=1;elbow=vertical;curved=0;" edge="1" parent="1" source="ELEsdhav3RuFbOq88L6e-7" target="ELEsdhav3RuFbOq88L6e-103">
          <mxGeometry relative="1" as="geometry">
            <mxPoint x="95" y="1540.24" as="sourcePoint" />
            <mxPoint x="-10" y="1540.24" as="targetPoint" />
            <Array as="points">
              <mxPoint x="10" y="1490" />
              <mxPoint x="80" y="1520" />
            </Array>
          </mxGeometry>
        </mxCell>
        <mxCell id="ELEsdhav3RuFbOq88L6e-110" value="Просмотр &lt;br&gt;результатов" style="edgeLabel;html=1;align=center;verticalAlign=middle;resizable=0;points=[];" vertex="1" connectable="0" parent="ELEsdhav3RuFbOq88L6e-109">
          <mxGeometry x="0.2903" y="2" relative="1" as="geometry">
            <mxPoint x="-18" y="-2" as="offset" />
          </mxGeometry>
        </mxCell>
      </root>
    </mxGraphModel>
  </diagram>
</mxfile>
